<?xml version="1.0" encoding="utf-8"?>
<!-- Generator: Adobe Illustrator 23.0.4, SVG Export Plug-In . SVG Version: 6.00 Build 0)  -->
<svg version="1.1" id="Layer_1" xmlns="http://www.w3.org/2000/svg" xmlns:xlink="http://www.w3.org/1999/xlink" x="0px" y="0px"
	 viewBox="0 0 1440 745" style="enable-background:new 0 0 1440 745;" xml:space="preserve">
<style type="text/css">
	.st0{fill-rule:evenodd;clip-rule:evenodd;fill:#151B1E;}
	.st1{filter:url(#Adobe_OpacityMaskFilter);}
	.st2{fill-rule:evenodd;clip-rule:evenodd;fill:#FFFFFF;}
	.st3{mask:url(#b_1_);fill-rule:evenodd;clip-rule:evenodd;fill:#455C65;}
	.st4{fill-rule:evenodd;clip-rule:evenodd;fill:#6F8E9B;}
	.st5{filter:url(#Adobe_OpacityMaskFilter_1_);}
	.st6{mask:url(#d_1_);fill-rule:evenodd;clip-rule:evenodd;fill:#607D8B;}
	.st7{fill-rule:evenodd;clip-rule:evenodd;fill:#607D8B;}
	.st8{fill-rule:evenodd;clip-rule:evenodd;fill:#384A51;}
	.st9{fill-rule:evenodd;clip-rule:evenodd;fill:#F67E7E;}
	.st10{fill-rule:evenodd;clip-rule:evenodd;fill:#ECF0F1;}
	.st11{fill-rule:evenodd;clip-rule:evenodd;fill:#F8F7F9;}
	.st12{fill-rule:evenodd;clip-rule:evenodd;fill:#C3DCE5;}
	.st13{fill-rule:evenodd;clip-rule:evenodd;fill:#F9EE14;}
	.st14{filter:url(#Adobe_OpacityMaskFilter_2_);}
	.st15{mask:url(#f_1_);fill-rule:evenodd;clip-rule:evenodd;fill:#F7A1A1;}
	.st16{filter:url(#Adobe_OpacityMaskFilter_3_);}
	.st17{mask:url(#f_2_);fill-rule:evenodd;clip-rule:evenodd;fill:#FFD2D2;}
	.st18{fill-rule:evenodd;clip-rule:evenodd;fill:url(#SVGID_1_);}
	.st19{fill-rule:evenodd;clip-rule:evenodd;fill:url(#SVGID_2_);}
	.st20{fill-rule:evenodd;clip-rule:evenodd;fill:url(#SVGID_3_);}
	.st21{fill-rule:evenodd;clip-rule:evenodd;fill:url(#SVGID_4_);}
	.st22{fill-rule:evenodd;clip-rule:evenodd;fill:url(#SVGID_5_);}
	.st23{fill-rule:evenodd;clip-rule:evenodd;fill:url(#SVGID_6_);}
	.st24{fill-rule:evenodd;clip-rule:evenodd;fill:url(#SVGID_7_);}
	.st25{fill-rule:evenodd;clip-rule:evenodd;fill:url(#SVGID_8_);}
	.st26{fill-rule:evenodd;clip-rule:evenodd;fill:url(#SVGID_9_);}
	.st27{fill-rule:evenodd;clip-rule:evenodd;fill:url(#SVGID_10_);}
	.st28{fill-rule:evenodd;clip-rule:evenodd;fill:url(#SVGID_11_);}
	.st29{fill-rule:evenodd;clip-rule:evenodd;fill:url(#SVGID_12_);}
	.st30{fill-rule:evenodd;clip-rule:evenodd;fill:url(#SVGID_13_);}
	.st31{fill-rule:evenodd;clip-rule:evenodd;fill:url(#SVGID_14_);}
	.st32{fill-rule:evenodd;clip-rule:evenodd;fill:url(#SVGID_15_);}
</style>
<g>
	<path class="st0" d="M-0.3,745h1440V0H-0.3V745z"/>
	<g transform="translate(0 464)">
		<defs>
			<filter id="Adobe_OpacityMaskFilter" filterUnits="userSpaceOnUse" x="-51.7" y="0.1" width="1640.3" height="167.3">
				<feColorMatrix  type="matrix" values="1 0 0 0 0  0 1 0 0 0  0 0 1 0 0  0 0 0 1 0"/>
			</filter>
		</defs>
		<mask maskUnits="userSpaceOnUse" x="-51.7" y="0.1" width="1640.3" height="167.3" id="b_1_">
			<g class="st1">
				<path id="a_1_" class="st2" d="M-0.3,0.1h1440v167.3H-0.3V0.1z"/>
			</g>
		</mask>
		<path class="st3" d="M-40.4,160.6c-11.9-0.1-14.8-6.5-6.4-14.2L118.6,5.6c8.4-7.8,21.7-7.3,29.4,1.1l92.7,67.8
			c30,16,56.1,1.3,65-6l53.6-30.9c8.9-7.3,23.8-7.6,33-0.6l57.4,28.4c18,11,47,28,65,23l76.7-21.3c10.9-4.5,28.8-4.8,39.8-0.6
			l64.2,24.6c11,4.2,27.6,2,36.9-4.9l62.4-43.8c9.3-6.9,20.9-7,29.1,1l51.5,49.8c8.2,8,22.6,8.8,31.9,1.9l29.2-21.8
			c9.3-6.9,25-7.5,34.8-1.3l39,24.4c9.9,6.2,25.7,5.7,35.1-1.1l109.1-78.7c9.4-6.8,24.7-6.6,33.9,0.4l104.4,79.1
			c9.2,7,24,6.7,32.9-0.7l119.6-66c8.9-7.4,23.3-7.3,32.1,0.2l106.2,124.2c8.8,7.5,6.2,13.5-5.8,13.5L-40.4,160.6L-40.4,160.6z"/>
	</g>
	<g transform="translate(0 597)">
		<g>
			<path class="st4" d="M1439.7,12.9c-17.3,3.3-36.1,10.9-74.1,16c-95.5,12.7-134.2-14-251.5-19.9C987,2.6,981.6,31.5,837.6,26.9
				C740.8,23.7,735.4,10.4,634.2,5C510.8-1.6,482.9,16.3,352,20.9C157.5,27.8,66.7-6.4-0.3,1.6v146.1h1440V12.9L1439.7,12.9z"/>
		</g>
		<defs>
			<filter id="Adobe_OpacityMaskFilter_1_" filterUnits="userSpaceOnUse" x="-30.6" y="39" width="1562.9" height="87.9">
				<feColorMatrix  type="matrix" values="1 0 0 0 0  0 1 0 0 0  0 0 1 0 0  0 0 0 1 0"/>
			</filter>
		</defs>
		<mask maskUnits="userSpaceOnUse" x="-30.6" y="39" width="1562.9" height="87.9" id="d_1_">
			<g class="st5">
				<path id="c_1_" class="st2" d="M1439.7,12.9c-17.3,3.3-36.1,10.9-74.1,16c-95.5,12.7-134.2-14-251.5-19.9
					C987,2.6,981.6,31.5,837.6,26.9C740.8,23.7,735.4,10.4,634.2,5C510.8-1.6,482.9,16.3,352,20.9C157.5,27.8,66.7-6.4-0.3,1.6
					v146.1h1440V12.9L1439.7,12.9z"/>
			</g>
		</mask>
		<path class="st6" d="M394.1,110c-5.8,1-11.7,1.5-17.5,1.8c-5.8,0.4-11.7,0.5-17.5,0.6c-5.9,0-11.7-0.1-17.6-0.4
			c-5.9-0.3-11.7-0.8-17.6-1.7c5.8-0.9,11.7-1.5,17.5-1.8c5.8-0.3,11.7-0.5,17.5-0.6c5.9,0,11.7,0.1,17.6,0.4
			C382.4,108.7,388.2,109.1,394.1,110l-70.2,0.3L394.1,110z M509.5,73.2c-9,1-18,1.5-27.1,1.8c-9,0.4-18.1,0.5-27.1,0.6
			c-9,0-18.1-0.1-27.1-0.4c-9-0.3-18.1-0.8-27.1-1.7c9-0.9,18.1-1.4,27.1-1.8c9-0.4,18.1-0.5,27.1-0.6c9,0,18.1,0.1,27.1,0.4
			C491.5,71.8,500.5,72.3,509.5,73.2l-108.4,0.3L509.5,73.2L509.5,73.2z M617.6,121.1c24.8-1,49.6-1.5,74.4-1.8
			c12.4-0.2,24.8-0.3,37.2-0.4l37.2-0.2l37.2,0.1c12.4,0.1,24.8,0.1,37.2,0.3c24.8,0.3,49.6,0.8,74.4,1.7c-24.8,1-49.6,1.5-74.4,1.8
			c-12.4,0.2-24.8,0.3-37.2,0.4l-37.2,0.2l-37.2-0.1c-12.4-0.1-24.8-0.1-37.2-0.3C667.2,122.4,642.4,122,617.6,121.1l297.6-0.3
			L617.6,121.1L617.6,121.1z M1204.5,125.5c21.7-1.1,43.4-1.7,65-2.2c10.8-0.3,21.7-0.4,32.5-0.6l32.5-0.3l32.5-0.1
			c10.8,0.1,21.7,0,32.5,0.2c21.7,0.2,43.4,0.5,65.1,1.3c-21.7,1.1-43.3,1.7-65,2.2c-10.8,0.3-21.7,0.4-32.5,0.6l-32.5,0.3
			l-32.5,0.1c-10.8-0.1-21.7,0-32.5-0.2C1247.9,126.6,1226.2,126.2,1204.5,125.5l260.3-1.7L1204.5,125.5L1204.5,125.5z M299.4,44.1
			c-21.9,0.6-43.8,0.7-65.7,0.6c-10.9,0-21.9-0.1-32.8-0.2l-32.8-0.4l-32.8-0.7c-10.9-0.3-21.8-0.5-32.8-0.9
			c-21.8-0.7-43.7-1.5-65.5-2.8C59,39.1,80.9,39,102.8,39c10.9,0,21.9,0.1,32.8,0.2l32.8,0.4l32.8,0.7c10.9,0.3,21.8,0.5,32.8,0.9
			C255.8,41.9,277.6,42.8,299.4,44.1L37.1,39.7L299.4,44.1L299.4,44.1z M-30.6,83c21.9-0.6,43.8-0.7,65.7-0.6
			c10.9,0,21.9,0.1,32.8,0.2l32.8,0.4l32.8,0.7c10.9,0.3,21.8,0.5,32.8,0.9c21.8,0.7,43.7,1.6,65.5,2.9c-21.9,0.6-43.8,0.7-65.7,0.6
			c-10.9,0-21.9-0.1-32.8-0.2l-32.8-0.4l-32.8-0.7c-10.9-0.3-21.8-0.5-32.8-0.9C13.1,85.1-8.8,84.3-30.6,83z M596.2,74.2
			c5.8-0.9,11.7-1.5,17.5-1.8c5.8-0.4,11.7-0.5,17.5-0.6c5.9,0,11.7,0.1,17.6,0.4c5.9,0.3,11.7,0.8,17.6,1.7
			c-5.8,1-11.7,1.5-17.5,1.8c-5.8,0.4-11.7,0.5-17.5,0.6c-5.9,0-11.7-0.1-17.6-0.4C608,75.5,602.1,75.1,596.2,74.2z M1065.3,73.7
			c9-0.9,17.9-1.5,26.9-1.8c9-0.4,17.9-0.5,26.9-0.6c9,0,17.9,0.1,26.9,0.4c9,0.3,17.9,0.8,26.9,1.7c-9,1-17.9,1.5-26.9,1.8
			c-9,0.4-17.9,0.5-26.9,0.6c-9,0-17.9-0.1-26.9-0.4C1083.2,75.1,1074.2,74.6,1065.3,73.7L1065.3,73.7z M989.6,112.5
			c9-0.9,17.9-1.4,26.9-1.8c9-0.4,17.9-0.5,26.9-0.6c9,0,17.9,0.1,26.9,0.4c9,0.3,17.9,0.8,26.9,1.7c-9,1-17.9,1.5-26.9,1.8
			c-9,0.4-17.9,0.5-26.9,0.6c-9,0-17.9-0.1-26.9-0.4C1007.5,113.9,998.6,113.4,989.6,112.5L989.6,112.5z M806.1,61.3
			c12.5-0.6,25-0.9,37.5-0.9c6.2-0.1,12.5,0,18.7,0l18.7,0.3c12.4,0.3,24.9,0.7,37.3,1.3c12.4,0.6,24.8,1.4,37.2,2.6
			c-12.5,0.7-25,0.9-37.5,0.9c-12.5,0-24.9-0.1-37.4-0.3l-18.6-0.5c-6.2-0.3-12.4-0.4-18.6-0.8C830.8,63.3,818.4,62.5,806.1,61.3
			L806.1,61.3z M1328.4,88.4c17.1-0.6,34.1-0.8,51.1-0.9c8.5-0.1,17,0,25.5,0.1l25.5,0.3l25.5,0.6c8.5,0.3,17,0.5,25.5,0.8
			c17,0.6,33.9,1.4,50.9,2.6c-17.1,0.6-34.1,0.8-51.1,0.9c-8.5,0.1-17,0-25.5-0.1l-25.5-0.3l-25.5-0.6c-8.5-0.3-17-0.5-25.5-0.8
			C1362.3,90.4,1345.4,89.6,1328.4,88.4L1328.4,88.4z"/>
	</g>
	<path class="st7" d="M1302.7,649.5c0.4,1.8-2.6,5.1-11.5,6.3c-8.1,1-17.6,2.7-29.5,2.7c-9.3,0-19.3-1.4-26.5-2.1
		c-12.1-1.1-15.5-4.7-15.5-6.9c0-2.8,6.6-5.6,23-6c4.4-0.1,12.8,0,18,0c6.2,0,13,0.9,18,1C1293.9,644.7,1301.7,645.5,1302.7,649.5"
		/>
	<path class="st8" d="M1266.1,650.5h-4.6l-0.2-22h-2l-0.7,22h-4.6c-0.2,0-0.4,0.2-0.4,0.5v3.1c0,0.2,0.2,0.5,0.4,0.5h12.1
		c0.2,0,0.5-0.2,0.5-0.5V651C1266.5,650.7,1266.3,650.5,1266.1,650.5 M1297.9,647.4l-0.8-3c-0.1-0.2-0.3-0.4-0.6-0.3l-4.7,1.2
		l-9.9-25.3l-1.9,0.7l8.8,25.4l-4,1c-0.2,0.1-0.4,0.3-0.3,0.5l0.8,3c0.1,0.2,0.3,0.4,0.6,0.3l11.7-3.1
		C1297.8,647.8,1297.9,647.6,1297.9,647.4 M1224,647.4l0.8-3c0.1-0.2,0.3-0.4,0.6-0.3l4.7,1.2l9.9-25.3l1.9,0.7l-8.8,25.4l4,1
		c0.2,0.1,0.4,0.3,0.3,0.5l-0.8,3c-0.1,0.2-0.3,0.4-0.6,0.3l-11.7-3.1C1224.1,647.8,1224,647.6,1224,647.4"/>
	<path class="st9" d="M1243.1,585.2c0,0-12.1,18.3-12.5,43.7c0,1.5,1.8,2.2,2.8,1.1c3-3.2,8.3-8.4,14.6-13L1243.1,585.2z
		 M1278.7,585.2c0,0,12.1,18.3,12.5,43.7c0,1.5-1.8,2.2-2.8,1.1c-3-3.2-8.6-8.4-15-12.9L1278.7,585.2L1278.7,585.2z"/>
	<path class="st8" d="M1275.3,608.8c-0.6,3.3-1.3,6.2-1.9,8.4l-12.6-0.1l-12.8-0.1c-0.6-2.2-1.2-5.1-1.8-8.4L1275.3,608.8
		L1275.3,608.8z"/>
	<path class="st9" d="M1260.2,514.4c-3.6,4.1-6.8,8.5-9.4,13.3l20.7,0.1c-3.7-6.8-7.5-11.4-9.4-13.4c-0.5-0.5-1.3-0.6-1.8-0.1
		C1260.3,514.3,1260.3,514.4,1260.2,514.4"/>
	<path class="st10" d="M1250.8,527.7c-4.7,8.7-9.2,20.7-9.2,34.9c-0.1,10.6,2.3,32.5,4.7,46.1l29,0.2c2.6-13.5,5-35.4,5.1-46
		c0.1-14.2-4.2-26.2-8.8-35L1250.8,527.7z"/>
	<path class="st11" d="M1250.8,527.7c-4.7,8.7-9.2,20.7-9.2,34.9c-0.1,10.6,2.3,32.5,4.7,46.1l29,0.2c2.6-13.5,5-35.4,5.1-46
		c0.1-14.2-4.2-26.2-8.8-35L1250.8,527.7z"/>
	<path class="st8" d="M1261.3,566c-6.6,0-11.9-5.4-11.8-12c0-6.6,5.4-11.9,12-11.8c6.6,0,11.9,5.4,11.8,12
		C1273.2,560.7,1267.8,566,1261.3,566"/>
	<path class="st12" d="M1270.2,546.1c2,2.2,3.1,5.1,3.1,8c0,6.6-5.4,11.9-12,11.8c-2.9,0-5.8-1.1-7.9-3.1c2.2,2.5,5.4,3.9,8.8,3.9
		c6.6,0,11.9-5.3,12-11.8C1274.1,551.6,1272.7,548.4,1270.2,546.1"/>
	<path class="st9" d="M1260.5,630.8c-0.8,0-1.4-0.7-1.4-1.5c0,0-2.8-16-2.8-21.3c0-5.3,3-21,3-21c0-0.8,0.7-1.5,1.5-1.5
		c0.8,0,1.4,0.7,1.4,1.5c0,0,2.9,15.8,2.9,21.1c0,5.3-3.1,21.2-3.1,21.2C1262,630.2,1261.3,630.8,1260.5,630.8
		C1260.5,630.8,1260.5,630.8,1260.5,630.8"/>
	<path class="st13" d="M1271,554.1c0,5.3-4.3,9.6-9.6,9.6s-9.6-4.3-9.6-9.6s4.3-9.6,9.6-9.6S1271,548.8,1271,554.1"/>
	<g transform="translate(124 131)">
		<g>
			<path class="st9" d="M32.3,1.7l-0.2,0c-0.4,0.1-0.7,0.2-1,0.3c-0.1,0-0.2,0.1-0.3,0.1c-0.3,0.1-0.6,0.2-0.9,0.3
				c-0.1,0-0.3,0.1-0.4,0.2c-0.3,0.1-0.6,0.2-0.9,0.3C28.4,3,28.2,3.1,28,3.2c-0.3,0.1-0.5,0.2-0.8,0.4c-0.2,0.1-0.3,0.2-0.5,0.2
				C26.5,3.9,26.2,4,26,4.1c-0.6,0.3-1.2,0.7-1.8,1C23.8,5.4,23.4,5.7,23,6c-0.4,0.3-0.8,0.6-1.2,0.9c-0.2,0.1-0.4,0.3-0.6,0.4
				c-0.4,0.3-0.8,0.6-1.1,0.9c-0.2,0.2-0.4,0.3-0.6,0.5C19.3,8.9,19.1,9,19,9.2c-0.2,0.2-0.4,0.4-0.6,0.6c-0.2,0.2-0.3,0.3-0.5,0.5
				c-0.2,0.2-0.4,0.4-0.6,0.6c-0.1,0.2-0.3,0.3-0.4,0.5c-0.2,0.2-0.4,0.5-0.6,0.7c-0.1,0.2-0.3,0.3-0.4,0.5
				c-0.2,0.3-0.4,0.5-0.6,0.8c-0.1,0.1-0.2,0.3-0.3,0.4c-0.3,0.4-0.6,0.8-0.8,1.3c-0.3,0.4-0.5,0.9-0.8,1.3
				c-0.1,0.1-0.2,0.3-0.2,0.5c-0.2,0.3-0.3,0.6-0.5,0.9c-0.1,0.2-0.2,0.4-0.3,0.6c-0.1,0.3-0.3,0.5-0.4,0.8
				c-0.1,0.2-0.2,0.4-0.2,0.6c-0.1,0.3-0.2,0.5-0.3,0.8c-0.1,0.2-0.2,0.4-0.2,0.6c-0.1,0.3-0.2,0.5-0.3,0.8
				c-0.1,0.2-0.1,0.4-0.2,0.7c-0.1,0.2-0.1,0.5-0.2,0.7c-0.1,0.2-0.1,0.5-0.2,0.7c-0.1,0.2-0.1,0.5-0.2,0.7
				c-0.1,0.5-0.2,0.9-0.3,1.4c-0.1,0.7-0.2,1.5-0.3,2.2c-0.1,1.4-0.2,2.9-0.1,4.4c0,0.2,0,0.3,0,0.5c0,0.3,0,0.6,0.1,0.9
				c0,0.2,0,0.3,0,0.5c0,0.3,0.1,0.7,0.1,1c0,0.1,0,0.2,0.1,0.3c0.1,0.4,0.1,0.7,0.2,1.1c0,0.1,0,0.1,0,0.2
				c1.1,5.5,3.6,10.6,7.4,14.7l0,0c0.3,0.3,0.6,0.7,1,1l0,0c0.3,0.3,0.7,0.7,1,1l0,0c0.4,0.3,0.7,0.6,1.1,0.9l0,0
				c0.4,0.3,0.8,0.6,1.1,0.9c0.7,0.5,1.4,1,2.1,1.4c0.6,0.4,1.2,0.7,1.9,1.1c0.8,0.4,1.6,0.8,2.4,1.1c0,0,0.1,0,0.1,0.1
				c0.6,0.3,1.3,0.5,1.9,0.7c0.1,0,0.2,0.1,0.3,0.1c1.4,0.5,2.8,0.8,4.3,1.1l0.1,0c0.7,0.1,1.5,0.2,2.2,0.3l0,0
				c11.2,1.1,22.6-4,29-14.2c6.4-10.2,6-22.7,0.2-32.3l0,0c-0.4-0.6-0.8-1.3-1.2-1.9L65,13.3c-0.4-0.6-0.9-1.2-1.3-1.7l-0.1-0.1
				c-0.5-0.6-1.1-1.3-1.7-1.8c-0.5-0.5-1-0.9-1.5-1.4l-0.1-0.1c-0.5-0.5-1.1-0.9-1.7-1.3c-0.1-0.1-0.3-0.2-0.4-0.3
				c-0.6-0.4-1.2-0.8-1.8-1.2c-1.1-0.7-2.3-1.3-3.5-1.9l0,0C52.4,3.2,52,3,51.6,2.9l0,0c-0.4-0.2-0.9-0.3-1.3-0.5l0,0
				c-0.4-0.2-0.9-0.3-1.4-0.4l0,0c-2.8-0.8-5.7-1.2-8.6-1.2C37.5,0.7,34.9,1,32.3,1.7"/>
		</g>
		<defs>
			<filter id="Adobe_OpacityMaskFilter_2_" filterUnits="userSpaceOnUse" x="3.5" y="14.4" width="70.9" height="29.5">
				<feColorMatrix  type="matrix" values="1 0 0 0 0  0 1 0 0 0  0 0 1 0 0  0 0 0 1 0"/>
			</filter>
		</defs>
		<mask maskUnits="userSpaceOnUse" x="3.5" y="14.4" width="70.9" height="29.5" id="f_1_">
			<g class="st14">
				<path id="e_1_" class="st2" d="M32.3,1.7l-0.2,0c-0.4,0.1-0.7,0.2-1,0.3c-0.1,0-0.2,0.1-0.3,0.1c-0.3,0.1-0.6,0.2-0.9,0.3
					c-0.1,0-0.3,0.1-0.4,0.2c-0.3,0.1-0.6,0.2-0.9,0.3C28.4,3,28.2,3.1,28,3.2c-0.3,0.1-0.5,0.2-0.8,0.4c-0.2,0.1-0.3,0.2-0.5,0.2
					C26.5,3.9,26.2,4,26,4.1c-0.6,0.3-1.2,0.7-1.8,1C23.8,5.4,23.4,5.7,23,6c-0.4,0.3-0.8,0.6-1.2,0.9c-0.2,0.1-0.4,0.3-0.6,0.4
					c-0.4,0.3-0.8,0.6-1.1,0.9c-0.2,0.2-0.4,0.3-0.6,0.5C19.3,8.9,19.1,9,19,9.2c-0.2,0.2-0.4,0.4-0.6,0.6c-0.2,0.2-0.3,0.3-0.5,0.5
					c-0.2,0.2-0.4,0.4-0.6,0.6c-0.1,0.2-0.3,0.3-0.4,0.5c-0.2,0.2-0.4,0.5-0.6,0.7c-0.1,0.2-0.3,0.3-0.4,0.5
					c-0.2,0.3-0.4,0.5-0.6,0.8c-0.1,0.1-0.2,0.3-0.3,0.4c-0.3,0.4-0.6,0.8-0.8,1.3c-0.3,0.4-0.5,0.9-0.8,1.3
					c-0.1,0.1-0.2,0.3-0.2,0.5c-0.2,0.3-0.3,0.6-0.5,0.9c-0.1,0.2-0.2,0.4-0.3,0.6c-0.1,0.3-0.3,0.5-0.4,0.8
					c-0.1,0.2-0.2,0.4-0.2,0.6c-0.1,0.3-0.2,0.5-0.3,0.8c-0.1,0.2-0.2,0.4-0.2,0.6c-0.1,0.3-0.2,0.5-0.3,0.8
					c-0.1,0.2-0.1,0.4-0.2,0.7c-0.1,0.2-0.1,0.5-0.2,0.7c-0.1,0.2-0.1,0.5-0.2,0.7c-0.1,0.2-0.1,0.5-0.2,0.7
					c-0.1,0.5-0.2,0.9-0.3,1.4c-0.1,0.7-0.2,1.5-0.3,2.2c-0.1,1.4-0.2,2.9-0.1,4.4c0,0.2,0,0.3,0,0.5c0,0.3,0,0.6,0.1,0.9
					c0,0.2,0,0.3,0,0.5c0,0.3,0.1,0.7,0.1,1c0,0.1,0,0.2,0.1,0.3c0.1,0.4,0.1,0.7,0.2,1.1c0,0.1,0,0.1,0,0.2
					c1.1,5.5,3.6,10.6,7.4,14.7l0,0c0.3,0.3,0.6,0.7,1,1l0,0c0.3,0.3,0.7,0.7,1,1l0,0c0.4,0.3,0.7,0.6,1.1,0.9l0,0
					c0.4,0.3,0.8,0.6,1.1,0.9c0.7,0.5,1.4,1,2.1,1.4c0.6,0.4,1.2,0.7,1.9,1.1c0.8,0.4,1.6,0.8,2.4,1.1c0,0,0.1,0,0.1,0.1
					c0.6,0.3,1.3,0.5,1.9,0.7c0.1,0,0.2,0.1,0.3,0.1c1.4,0.5,2.8,0.8,4.3,1.1l0.1,0c0.7,0.1,1.5,0.2,2.2,0.3l0,0
					c11.2,1.1,22.6-4,29-14.2c6.4-10.2,6-22.7,0.2-32.3l0,0c-0.4-0.6-0.8-1.3-1.2-1.9L65,13.3c-0.4-0.6-0.9-1.2-1.3-1.7l-0.1-0.1
					c-0.5-0.6-1.1-1.3-1.7-1.8c-0.5-0.5-1-0.9-1.5-1.4l-0.1-0.1c-0.5-0.5-1.1-0.9-1.7-1.3c-0.1-0.1-0.3-0.2-0.4-0.3
					c-0.6-0.4-1.2-0.8-1.8-1.2c-1.1-0.7-2.3-1.3-3.5-1.9l0,0C52.4,3.2,52,3,51.6,2.9l0,0c-0.4-0.2-0.9-0.3-1.3-0.5l0,0
					c-0.4-0.2-0.9-0.3-1.4-0.4l0,0c-2.8-0.8-5.7-1.2-8.6-1.2C37.5,0.7,34.9,1,32.3,1.7"/>
			</g>
		</mask>
		<path class="st15" d="M66.1,33.1c0.2-0.3,0.3-0.7,0.2-1.2c-0.1-0.5-0.3-0.8-0.7-1c-1.4,0.3-2.9,0.6-4.2,1
			c-4.4,1.2-8.7,2.7-13.2,3.5c-1.1,0.2-2.6-0.3-2.8-1.6c-0.7-3.7,2.2-4.8,5.2-5.9c2.6-0.9,5.3-1.5,8-2.3c1.6-0.5,3.8-1,5.2-1.8
			c0.3-0.2,1.3-0.7,1.8-1.3c-0.2-0.4-0.4-0.8-0.5-1.3c-0.4-0.2-1-0.4-1.8-0.5c-0.1,0-0.2-0.1-0.2-0.1c-2.9,0.7-5.9,1.2-8.8,1.1
			c-0.7,0-1.4-0.4-1.7-1c-0.1-0.1-0.1-0.2-0.2-0.3c-1.8-3.4,12.7-5.5,14.8-5.9c2.4-0.5,3.6,2,2.6,3.6c0.3,0.4,0.5,0.9,0.5,1.4
			c0,0.3,0,0.5,0,0.7c0.5,0.2,2.4,1.4,2.6,1.6c0.8,0.8,1.3,1.8,1.4,3c0.2,2-0.7,3.2-2.4,4.1c-0.2,0.1-0.3,0.1-0.5,0.2
			c0.4,0.9,0.4,2,0.2,3.1c1.1,0.3,1.9,1.7,1.5,2.8c-0.1,0.5-0.3,0.9-0.6,1.2c2.4,0.7,2.6,4.5,0,5.1c-3.1,0.8-17.9,5.9-18.1-0.6
			c-0.1-3,3.6-4,5.8-4.8c1.6-0.5,3.2-1.1,4.7-2C65.2,33.7,65.6,33.5,66.1,33.1z M35,18.6c1.2,0.7,1.4,2.9,0,3.5
			c-3.7,1.6-8.2,1.4-12.2,2.5c-0.9,0.2-1.8,0.5-2.7,0.7c0.8,1.6,1.7,2.7,4,2.4c2.3-0.3,4.6-0.6,7-1c2.2-0.3,3.2,2.7,0.9,3.4
			c-8.6,2.4-17.1,4.6-25.9,6.3c-2.6,0.5-3.7-3.4-1.1-4c1.8-0.4,3.3-1.2,4.9-2c-0.7-0.2-1.2-0.8-1.3-1.4c-0.3-0.5-0.5-1.1-0.2-1.8
			l0.1-0.4c0.1-0.3,0.2-0.5,0.4-0.8c-0.5-0.9-0.3-2.3,1-2.6c4.6-1.3,9.2-2.9,13.8-4.2C27.3,18.1,31.5,16.8,35,18.6L35,18.6z"/>
		<defs>
			<filter id="Adobe_OpacityMaskFilter_3_" filterUnits="userSpaceOnUse" x="13.8" y="0.6" width="48.4" height="56.7">
				<feColorMatrix  type="matrix" values="1 0 0 0 0  0 1 0 0 0  0 0 1 0 0  0 0 0 1 0"/>
			</filter>
		</defs>
		<mask maskUnits="userSpaceOnUse" x="13.8" y="0.6" width="48.4" height="56.7" id="f_2_">
			<g class="st16">
				<path id="e_2_" class="st2" d="M32.3,1.7l-0.2,0c-0.4,0.1-0.7,0.2-1,0.3c-0.1,0-0.2,0.1-0.3,0.1c-0.3,0.1-0.6,0.2-0.9,0.3
					c-0.1,0-0.3,0.1-0.4,0.2c-0.3,0.1-0.6,0.2-0.9,0.3C28.4,3,28.2,3.1,28,3.2c-0.3,0.1-0.5,0.2-0.8,0.4c-0.2,0.1-0.3,0.2-0.5,0.2
					C26.5,3.9,26.2,4,26,4.1c-0.6,0.3-1.2,0.7-1.8,1C23.8,5.4,23.4,5.7,23,6c-0.4,0.3-0.8,0.6-1.2,0.9c-0.2,0.1-0.4,0.3-0.6,0.4
					c-0.4,0.3-0.8,0.6-1.1,0.9c-0.2,0.2-0.4,0.3-0.6,0.5C19.3,8.9,19.1,9,19,9.2c-0.2,0.2-0.4,0.4-0.6,0.6c-0.2,0.2-0.3,0.3-0.5,0.5
					c-0.2,0.2-0.4,0.4-0.6,0.6c-0.1,0.2-0.3,0.3-0.4,0.5c-0.2,0.2-0.4,0.5-0.6,0.7c-0.1,0.2-0.3,0.3-0.4,0.5
					c-0.2,0.3-0.4,0.5-0.6,0.8c-0.1,0.1-0.2,0.3-0.3,0.4c-0.3,0.4-0.6,0.8-0.8,1.3c-0.3,0.4-0.5,0.9-0.8,1.3
					c-0.1,0.1-0.2,0.3-0.2,0.5c-0.2,0.3-0.3,0.6-0.5,0.9c-0.1,0.2-0.2,0.4-0.3,0.6c-0.1,0.3-0.3,0.5-0.4,0.8
					c-0.1,0.2-0.2,0.4-0.2,0.6c-0.1,0.3-0.2,0.5-0.3,0.8c-0.1,0.2-0.2,0.4-0.2,0.6c-0.1,0.3-0.2,0.5-0.3,0.8
					c-0.1,0.2-0.1,0.4-0.2,0.7c-0.1,0.2-0.1,0.5-0.2,0.7c-0.1,0.2-0.1,0.5-0.2,0.7c-0.1,0.2-0.1,0.5-0.2,0.7
					c-0.1,0.5-0.2,0.9-0.3,1.4c-0.1,0.7-0.2,1.5-0.3,2.2c-0.1,1.4-0.2,2.9-0.1,4.4c0,0.2,0,0.3,0,0.5c0,0.3,0,0.6,0.1,0.9
					c0,0.2,0,0.3,0,0.5c0,0.3,0.1,0.7,0.1,1c0,0.1,0,0.2,0.1,0.3c0.1,0.4,0.1,0.7,0.2,1.1c0,0.1,0,0.1,0,0.2
					c1.1,5.5,3.6,10.6,7.4,14.7l0,0c0.3,0.3,0.6,0.7,1,1l0,0c0.3,0.3,0.7,0.7,1,1l0,0c0.4,0.3,0.7,0.6,1.1,0.9l0,0
					c0.4,0.3,0.8,0.6,1.1,0.9c0.7,0.5,1.4,1,2.1,1.4c0.6,0.4,1.2,0.7,1.9,1.1c0.8,0.4,1.6,0.8,2.4,1.1c0,0,0.1,0,0.1,0.1
					c0.6,0.3,1.3,0.5,1.9,0.7c0.1,0,0.2,0.1,0.3,0.1c1.4,0.5,2.8,0.8,4.3,1.1l0.1,0c0.7,0.1,1.5,0.2,2.2,0.3l0,0
					c11.2,1.1,22.6-4,29-14.2c6.4-10.2,6-22.7,0.2-32.3l0,0c-0.4-0.6-0.8-1.3-1.2-1.9L65,13.3c-0.4-0.6-0.9-1.2-1.3-1.7l-0.1-0.1
					c-0.5-0.6-1.1-1.3-1.7-1.8c-0.5-0.5-1-0.9-1.5-1.4l-0.1-0.1c-0.5-0.5-1.1-0.9-1.7-1.3c-0.1-0.1-0.3-0.2-0.4-0.3
					c-0.6-0.4-1.2-0.8-1.8-1.2c-1.1-0.7-2.3-1.3-3.5-1.9l0,0C52.4,3.2,52,3,51.6,2.9l0,0c-0.4-0.2-0.9-0.3-1.3-0.5l0,0
					c-0.4-0.2-0.9-0.3-1.4-0.4l0,0c-2.8-0.8-5.7-1.2-8.6-1.2C37.5,0.7,34.9,1,32.3,1.7"/>
			</g>
		</mask>
		<path class="st17" d="M60.1,4.7c3.1,0.4,2.8,5.1-0.5,5.5c-8.3,1-16.9,5.4-25.1,1.9c-2.1-0.9-1.6-4.2,0.4-4.9
			c0.1-0.3,0.4-0.7,0.8-0.9c2.9-1.5,6.2-1.7,9.3-2.4c4-0.8,7.9-2,11.9-3.2C59,0,61.4,2.8,60.1,4.7L60.1,4.7z M43.8,42.5
			c3.2-0.5,4.7,3.9,1.8,5.1c-0.3,0.4-0.8,0.8-1.4,0.9c-0.8,0.2-1.6,0.4-2.4,0.6c-2.1,1-4.3,1.7-6.5,2.4c-6,2.5-12,5.5-18.4,5.8
			c-0.9,0.1-1.6-0.3-2-0.9c-1-0.6-1.6-2-0.5-3c0.2-0.2,0.5-0.4,0.7-0.6c0.1-0.1,0.2-0.2,0.2-0.2c-0.4-0.7-0.3-1.6,0.6-2
			c4-1.8,8.1-3.1,12.4-4.3c1.7-0.7,3.4-1.4,5.2-1.9c2-0.5,4.5-1.2,6.8-1.3C41.4,42.9,42.6,42.7,43.8,42.5L43.8,42.5z M46.4,55.2
			c-0.7,0.4-1.4-0.7-0.7-1.1c2.5-1.4,5-2.4,7.7-3.1c0.5-0.1,0.7,0.6,0.2,0.8C51.2,52.8,48.8,53.9,46.4,55.2z M41.8,24.2
			c-0.9,0.2-1.3-1.2-0.4-1.4c1.1-0.3,2.2-0.6,3.4-0.8c0.8-0.2,1.2,1,0.4,1.3C44,23.6,42.9,23.9,41.8,24.2z M20.7,14.5
			c-0.3-0.1-0.5-0.4-0.3-0.7c0.3-0.5,0.9-0.6,1.4-0.8c0.6-0.2,1.2-0.4,1.8-0.5c0.8-0.2,1,0.9,0.3,1.2c-0.6,0.2-1.1,0.4-1.7,0.6
			C21.7,14.4,21.2,14.7,20.7,14.5z"/>
		<path class="st2" d="M8.2,35.3c-1.7,1.4-3.5,2.9-5.1,4.4c-0.8,0.8-1.5,1.6-2,2.6C1.1,42.5,1,42.8,1,43c0,0.2,0.1,0.3,0.2,0.5
			C1.5,43.8,2,43.9,2.5,44c2.1,0.4,4.4,0.2,6.6-0.1c2.2-0.3,4.4-0.6,6.6-1c4.4-0.8,8.8-1.8,13.1-2.9c4.4-1.1,8.7-2.3,13-3.5
			c4.3-1.2,8.6-2.6,12.9-4c4.3-1.4,8.5-2.9,12.6-4.6c2.1-0.8,4.1-1.7,6.1-2.7c1-0.5,2-1,2.9-1.6c0.5-0.3,0.9-0.6,1.3-1
			c0.4-0.3,0.8-0.7,1-1.1c0.2-0.4,0.3-0.8,0-1.1c-0.3-0.4-0.8-0.6-1.3-0.8c-1-0.4-2.1-0.7-3.2-0.9c-2.2-0.4-4.4-0.7-6.7-0.9
			c2.3,0,4.5,0.2,6.8,0.5c1.1,0.2,2.2,0.4,3.3,0.8c0.5,0.2,1.1,0.5,1.6,0.9c0.1,0.1,0.2,0.3,0.3,0.4c0.1,0.2,0.2,0.4,0.1,0.5
			c0,0.4-0.1,0.7-0.2,1c-0.3,0.6-0.7,1-1.1,1.4c-0.4,0.4-0.9,0.8-1.4,1.1C76,25.1,75,25.7,74,26.2c-2,1.1-4,2.1-6.1,3
			c-8.3,3.6-16.9,6.4-25.6,9c-8.7,2.5-17.5,4.7-26.4,6.1c-2.2,0.3-4.5,0.6-6.8,0.8c-1.1,0.1-2.3,0.1-3.4,0.1c-1.1,0-2.3-0.1-3.5-0.4
			c-0.6-0.2-1.2-0.3-1.7-0.9c-0.1-0.2-0.2-0.3-0.3-0.5c-0.1-0.2-0.1-0.4-0.1-0.6c0-0.4,0.1-0.7,0.3-0.9c0.6-1.1,1.4-1.9,2.3-2.6
			C4.5,37.8,6.3,36.5,8.2,35.3"/>
	</g>
</g>
<radialGradient id="SVGID_1_" cx="536.1384" cy="72.0978" r="6.1077" gradientUnits="userSpaceOnUse">
	<stop  offset="0" style="stop-color:#FFFFFF"/>
	<stop  offset="7.859671e-02" style="stop-color:#DCDDDD"/>
	<stop  offset="0.2098" style="stop-color:#A8AAAB"/>
	<stop  offset="0.3431" style="stop-color:#7B7E80"/>
	<stop  offset="0.476" style="stop-color:#565A5D"/>
	<stop  offset="0.6084" style="stop-color:#3A3F41"/>
	<stop  offset="0.7401" style="stop-color:#252B2E"/>
	<stop  offset="0.8709" style="stop-color:#191F22"/>
	<stop  offset="1" style="stop-color:#151B1E"/>
</radialGradient>
<circle class="st18" cx="536.1" cy="72.1" r="6.1"/>
<radialGradient id="SVGID_2_" cx="278.0097" cy="95.893" r="6.1077" gradientUnits="userSpaceOnUse">
	<stop  offset="0" style="stop-color:#FFFFFF"/>
	<stop  offset="7.859671e-02" style="stop-color:#DCDDDD"/>
	<stop  offset="0.2098" style="stop-color:#A8AAAB"/>
	<stop  offset="0.3431" style="stop-color:#7B7E80"/>
	<stop  offset="0.476" style="stop-color:#565A5D"/>
	<stop  offset="0.6084" style="stop-color:#3A3F41"/>
	<stop  offset="0.7401" style="stop-color:#252B2E"/>
	<stop  offset="0.8709" style="stop-color:#191F22"/>
	<stop  offset="1" style="stop-color:#151B1E"/>
</radialGradient>
<circle class="st19" cx="278" cy="95.9" r="6.1"/>
<radialGradient id="SVGID_3_" cx="28.794" cy="192.4063" r="6.1077" gradientUnits="userSpaceOnUse">
	<stop  offset="0" style="stop-color:#FFFFFF"/>
	<stop  offset="7.859671e-02" style="stop-color:#DCDDDD"/>
	<stop  offset="0.2098" style="stop-color:#A8AAAB"/>
	<stop  offset="0.3431" style="stop-color:#7B7E80"/>
	<stop  offset="0.476" style="stop-color:#565A5D"/>
	<stop  offset="0.6084" style="stop-color:#3A3F41"/>
	<stop  offset="0.7401" style="stop-color:#252B2E"/>
	<stop  offset="0.8709" style="stop-color:#191F22"/>
	<stop  offset="1" style="stop-color:#151B1E"/>
</radialGradient>
<circle class="st20" cx="28.8" cy="192.4" r="6.1"/>
<radialGradient id="SVGID_4_" cx="16.7893" cy="202.5214" r="4.0074" gradientUnits="userSpaceOnUse">
	<stop  offset="0" style="stop-color:#FFFFFF"/>
	<stop  offset="7.859671e-02" style="stop-color:#DCDDDD"/>
	<stop  offset="0.2098" style="stop-color:#A8AAAB"/>
	<stop  offset="0.3431" style="stop-color:#7B7E80"/>
	<stop  offset="0.476" style="stop-color:#565A5D"/>
	<stop  offset="0.6084" style="stop-color:#3A3F41"/>
	<stop  offset="0.7401" style="stop-color:#252B2E"/>
	<stop  offset="0.8709" style="stop-color:#191F22"/>
	<stop  offset="1" style="stop-color:#151B1E"/>
</radialGradient>
<circle class="st21" cx="16.8" cy="202.5" r="4"/>
<radialGradient id="SVGID_5_" cx="91.6298" cy="57.3" r="4.0854" gradientUnits="userSpaceOnUse">
	<stop  offset="0" style="stop-color:#FFFFFF"/>
	<stop  offset="7.859671e-02" style="stop-color:#DCDDDD"/>
	<stop  offset="0.2098" style="stop-color:#A8AAAB"/>
	<stop  offset="0.3431" style="stop-color:#7B7E80"/>
	<stop  offset="0.476" style="stop-color:#565A5D"/>
	<stop  offset="0.6084" style="stop-color:#3A3F41"/>
	<stop  offset="0.7401" style="stop-color:#252B2E"/>
	<stop  offset="0.8709" style="stop-color:#191F22"/>
	<stop  offset="1" style="stop-color:#151B1E"/>
</radialGradient>
<circle class="st22" cx="91.6" cy="57.3" r="4.1"/>
<radialGradient id="SVGID_6_" cx="725.7789" cy="155.2352" r="6.1077" gradientUnits="userSpaceOnUse">
	<stop  offset="0" style="stop-color:#FFFFFF"/>
	<stop  offset="7.859671e-02" style="stop-color:#DCDDDD"/>
	<stop  offset="0.2098" style="stop-color:#A8AAAB"/>
	<stop  offset="0.3431" style="stop-color:#7B7E80"/>
	<stop  offset="0.476" style="stop-color:#565A5D"/>
	<stop  offset="0.6084" style="stop-color:#3A3F41"/>
	<stop  offset="0.7401" style="stop-color:#252B2E"/>
	<stop  offset="0.8709" style="stop-color:#191F22"/>
	<stop  offset="1" style="stop-color:#151B1E"/>
</radialGradient>
<circle class="st23" cx="725.8" cy="155.2" r="6.1"/>
<radialGradient id="SVGID_7_" cx="874.584" cy="175.5535" r="6.1077" gradientUnits="userSpaceOnUse">
	<stop  offset="0" style="stop-color:#FFFFFF"/>
	<stop  offset="7.859671e-02" style="stop-color:#DCDDDD"/>
	<stop  offset="0.2098" style="stop-color:#A8AAAB"/>
	<stop  offset="0.3431" style="stop-color:#7B7E80"/>
	<stop  offset="0.476" style="stop-color:#565A5D"/>
	<stop  offset="0.6084" style="stop-color:#3A3F41"/>
	<stop  offset="0.7401" style="stop-color:#252B2E"/>
	<stop  offset="0.8709" style="stop-color:#191F22"/>
	<stop  offset="1" style="stop-color:#151B1E"/>
</radialGradient>
<circle class="st24" cx="874.6" cy="175.6" r="6.1"/>
<radialGradient id="SVGID_8_" cx="118.1737" cy="281.2083" r="6.1077" gradientUnits="userSpaceOnUse">
	<stop  offset="0" style="stop-color:#FFFFFF"/>
	<stop  offset="7.859671e-02" style="stop-color:#DCDDDD"/>
	<stop  offset="0.2098" style="stop-color:#A8AAAB"/>
	<stop  offset="0.3431" style="stop-color:#7B7E80"/>
	<stop  offset="0.476" style="stop-color:#565A5D"/>
	<stop  offset="0.6084" style="stop-color:#3A3F41"/>
	<stop  offset="0.7401" style="stop-color:#252B2E"/>
	<stop  offset="0.8709" style="stop-color:#191F22"/>
	<stop  offset="1" style="stop-color:#151B1E"/>
</radialGradient>
<circle class="st25" cx="118.2" cy="281.2" r="6.1"/>
<radialGradient id="SVGID_9_" cx="958.5891" cy="49.9428" r="9.3795" gradientUnits="userSpaceOnUse">
	<stop  offset="0" style="stop-color:#FFFFFF"/>
	<stop  offset="7.859671e-02" style="stop-color:#DCDDDD"/>
	<stop  offset="0.2098" style="stop-color:#A8AAAB"/>
	<stop  offset="0.3431" style="stop-color:#7B7E80"/>
	<stop  offset="0.476" style="stop-color:#565A5D"/>
	<stop  offset="0.6084" style="stop-color:#3A3F41"/>
	<stop  offset="0.7401" style="stop-color:#252B2E"/>
	<stop  offset="0.8709" style="stop-color:#191F22"/>
	<stop  offset="1" style="stop-color:#151B1E"/>
</radialGradient>
<circle class="st26" cx="958.6" cy="49.9" r="9.4"/>
<radialGradient id="SVGID_10_" cx="964.6968" cy="314.1939" r="6.1077" gradientUnits="userSpaceOnUse">
	<stop  offset="0" style="stop-color:#FFFFFF"/>
	<stop  offset="7.859671e-02" style="stop-color:#DCDDDD"/>
	<stop  offset="0.2098" style="stop-color:#A8AAAB"/>
	<stop  offset="0.3431" style="stop-color:#7B7E80"/>
	<stop  offset="0.476" style="stop-color:#565A5D"/>
	<stop  offset="0.6084" style="stop-color:#3A3F41"/>
	<stop  offset="0.7401" style="stop-color:#252B2E"/>
	<stop  offset="0.8709" style="stop-color:#191F22"/>
	<stop  offset="1" style="stop-color:#151B1E"/>
</radialGradient>
<circle class="st27" cx="964.7" cy="314.2" r="6.1"/>
<radialGradient id="SVGID_11_" cx="528.3177" cy="291.7109" r="4.3948" gradientUnits="userSpaceOnUse">
	<stop  offset="0" style="stop-color:#FFFFFF"/>
	<stop  offset="7.859671e-02" style="stop-color:#DCDDDD"/>
	<stop  offset="0.2098" style="stop-color:#A8AAAB"/>
	<stop  offset="0.3431" style="stop-color:#7B7E80"/>
	<stop  offset="0.476" style="stop-color:#565A5D"/>
	<stop  offset="0.6084" style="stop-color:#3A3F41"/>
	<stop  offset="0.7401" style="stop-color:#252B2E"/>
	<stop  offset="0.8709" style="stop-color:#191F22"/>
	<stop  offset="1" style="stop-color:#151B1E"/>
</radialGradient>
<circle class="st28" cx="528.3" cy="291.7" r="4.4"/>
<radialGradient id="SVGID_12_" cx="414.2492" cy="40.5633" r="4.3948" gradientUnits="userSpaceOnUse">
	<stop  offset="0" style="stop-color:#FFFFFF"/>
	<stop  offset="7.859671e-02" style="stop-color:#DCDDDD"/>
	<stop  offset="0.2098" style="stop-color:#A8AAAB"/>
	<stop  offset="0.3431" style="stop-color:#7B7E80"/>
	<stop  offset="0.476" style="stop-color:#565A5D"/>
	<stop  offset="0.6084" style="stop-color:#3A3F41"/>
	<stop  offset="0.7401" style="stop-color:#252B2E"/>
	<stop  offset="0.8709" style="stop-color:#191F22"/>
	<stop  offset="1" style="stop-color:#151B1E"/>
</radialGradient>
<circle class="st29" cx="414.2" cy="40.6" r="4.4"/>
<radialGradient id="SVGID_13_" cx="1094.7069" cy="155.0132" r="3.0539" gradientUnits="userSpaceOnUse">
	<stop  offset="0" style="stop-color:#FFFFFF"/>
	<stop  offset="7.859671e-02" style="stop-color:#DCDDDD"/>
	<stop  offset="0.2098" style="stop-color:#A8AAAB"/>
	<stop  offset="0.3431" style="stop-color:#7B7E80"/>
	<stop  offset="0.476" style="stop-color:#565A5D"/>
	<stop  offset="0.6084" style="stop-color:#3A3F41"/>
	<stop  offset="0.7401" style="stop-color:#252B2E"/>
	<stop  offset="0.8709" style="stop-color:#191F22"/>
	<stop  offset="1" style="stop-color:#151B1E"/>
</radialGradient>
<circle class="st30" cx="1094.7" cy="155" r="3.1"/>
<radialGradient id="SVGID_14_" cx="1214.4203" cy="52.7788" r="6.1077" gradientUnits="userSpaceOnUse">
	<stop  offset="0" style="stop-color:#FFFFFF"/>
	<stop  offset="7.859671e-02" style="stop-color:#DCDDDD"/>
	<stop  offset="0.2098" style="stop-color:#A8AAAB"/>
	<stop  offset="0.3431" style="stop-color:#7B7E80"/>
	<stop  offset="0.476" style="stop-color:#565A5D"/>
	<stop  offset="0.6084" style="stop-color:#3A3F41"/>
	<stop  offset="0.7401" style="stop-color:#252B2E"/>
	<stop  offset="0.8709" style="stop-color:#191F22"/>
	<stop  offset="1" style="stop-color:#151B1E"/>
</radialGradient>
<circle class="st31" cx="1214.4" cy="52.8" r="6.1"/>
<radialGradient id="SVGID_15_" cx="1405.1915" cy="237.5364" r="4.0352" gradientUnits="userSpaceOnUse">
	<stop  offset="0" style="stop-color:#FFFFFF"/>
	<stop  offset="7.859671e-02" style="stop-color:#DCDDDD"/>
	<stop  offset="0.2098" style="stop-color:#A8AAAB"/>
	<stop  offset="0.3431" style="stop-color:#7B7E80"/>
	<stop  offset="0.476" style="stop-color:#565A5D"/>
	<stop  offset="0.6084" style="stop-color:#3A3F41"/>
	<stop  offset="0.7401" style="stop-color:#252B2E"/>
	<stop  offset="0.8709" style="stop-color:#191F22"/>
	<stop  offset="1" style="stop-color:#151B1E"/>
</radialGradient>
<circle class="st32" cx="1405.2" cy="237.5" r="4"/>
</svg>
