<svg xmlns="http://www.w3.org/2000/svg" xmlns:xlink="http://www.w3.org/1999/xlink" width="1440" height="745" viewBox="0 0 1440 745">
    <defs>
        <path id="a" d="M.33.079h1440v167.33H.33z"/>
        <path id="c" d="M1440.33 12.901c-17.322 3.34-36.14 10.897-74.14 15.96-95.452 12.718-134.213-14.022-251.465-19.878-127.111-6.348-132.443 22.536-276.42 17.891C741.443 23.748 736.01 10.422 634.83 5.007 511.423-1.595 483.561 16.304 352.648 20.91 158.204 27.751 67.401-6.38.33 1.62v146.06h1440V12.9z"/>
        <path id="e" d="M32.978 1.681l-.191.049c-.351.095-.7.2-1.046.308-.113.035-.225.068-.336.104-.315.102-.627.211-.938.323-.142.05-.284.1-.424.152a32.04 32.04 0 0 0-.86.342c-.16.066-.32.13-.48.198-.268.115-.534.238-.799.361-.173.08-.345.159-.517.244-.25.121-.498.247-.745.378a26.564 26.564 0 0 0-1.805 1.021 24.084 24.084 0 0 0-1.228.792 23.424 23.424 0 0 0-1.193.854c-.197.147-.392.296-.586.448a40.51 40.51 0 0 0-1.122.931c-.193.17-.382.342-.571.516-.173.158-.345.316-.514.478-.191.184-.379.374-.566.564-.159.162-.32.321-.476.486-.192.204-.377.413-.564.623-.145.163-.293.322-.435.488-.193.227-.38.46-.567.693-.128.158-.259.313-.384.475-.204.265-.401.538-.598.81-.101.14-.205.275-.304.417a30.84 30.84 0 0 0-.849 1.28 32.6 32.6 0 0 0-.783 1.325c-.083.15-.159.302-.24.452-.159.297-.319.593-.469.893-.092.184-.174.371-.261.556-.128.27-.256.538-.375.81-.087.201-.167.404-.25.607-.107.258-.215.516-.313.775-.081.214-.154.428-.23.642-.089.252-.179.503-.261.756-.073.222-.138.447-.205.671-.074.245-.148.49-.214.738-.063.231-.121.463-.178.696-.059.24-.119.479-.171.719a33.05 33.05 0 0 0-.279 1.423 32.17 32.17 0 0 0-.294 2.197 30.19 30.19 0 0 0-.115 4.351c.008.175.02.35.03.524.02.307.041.612.069.918.014.151.032.3.048.45.035.33.072.657.118.985.016.116.036.231.054.347.054.359.112.718.179 1.074.012.066.027.132.04.198a30.614 30.614 0 0 0 7.387 14.743l.016.018c.316.347.641.688.975 1.022l.024.023c.332.332.674.657 1.025.976l.027.025c.351.318.711.63 1.08.934l.023.019a29.396 29.396 0 0 0 1.144.898c.675.505 1.37.993 2.096 1.447.617.387 1.247.741 1.88 1.078a31.062 31.062 0 0 0 2.353 1.136c.042.019.085.034.127.052.632.268 1.269.507 1.911.729.111.038.221.078.331.114a29.692 29.692 0 0 0 4.281 1.088l.123.022c.741.129 1.482.23 2.227.303l.017.002c11.198 1.096 22.583-4.037 28.962-14.219 6.379-10.184 6.028-22.669.155-32.265l-.008-.015a30.784 30.784 0 0 0-1.244-1.87l-.076-.103a30.414 30.414 0 0 0-1.33-1.706l-.06-.073a30.81 30.81 0 0 0-1.702-1.845c-.48-.481-.974-.949-1.49-1.4l-.103-.094a30.335 30.335 0 0 0-1.657-1.332c-.129-.096-.259-.193-.391-.288a30.142 30.142 0 0 0-1.791-1.221 31.125 31.125 0 0 0-3.529-1.895l-.019-.009a29.278 29.278 0 0 0-1.32-.567l-.026-.01a30.69 30.69 0 0 0-1.333-.499l-.024-.009c-.448-.155-.898-.3-1.351-.433l-.015-.005A30.488 30.488 0 0 0 40.858.653c-2.666 0-5.315.348-7.88 1.028"/>
    </defs>
    <g fill="none" fill-rule="evenodd">
        <path fill="#151b1e" d="M.33 745h1440V0H.33z"/>
        <g transform="translate(0 464)">
            <mask id="b" fill="#fff">
                <use xlink:href="#a"/>
            </mask>
            <path fill="#455C65" d="M-39.782 160.636c-11.946-.05-14.81-6.456-6.365-14.236L119.259 5.6c8.444-7.78 21.669-7.276 29.388 1.12L241.33 74.5c30 16 56.075 1.312 65-6l53.6-30.863c8.926-7.311 23.768-7.566 32.984-.567L450.33 65.5c18 10.999 47 28 65 23l76.703-21.265c10.884-4.535 28.812-4.786 39.84-.557l64.154 24.597c11.028 4.228 27.633 2.007 36.899-4.936l62.404-43.84c9.265-6.942 20.883-6.998 29.117.97l51.506 49.846c8.235 7.968 22.569 8.826 31.855 1.906l29.223-21.78c9.285-6.921 24.964-7.521 34.84-1.333l39.019 24.445c9.877 6.187 25.655 5.704 35.063-1.075l109.143-78.652c9.408-6.78 24.654-6.61 33.879.379l104.374 79.053c9.226 6.987 24.038 6.683 32.916-.678l119.576-65.968c8.877-7.36 23.326-7.28 32.107.178l106.174 124.15c8.78 7.459 6.19 13.519-5.755 13.469l-1618.15-6.773z" mask="url(#b)"/>
        </g>
        <g transform="translate(0 597)">
            <mask id="d" fill="#fff">
                <use xlink:href="#c"/>
            </mask>
            <use fill="#6F8E9B" xlink:href="#c"/>
            <path fill="#607D8B" d="M394.755 110.044c-5.834.956-11.678 1.463-17.522 1.832-5.846.353-11.693.53-17.545.552a318.58 318.58 0 0 1-17.558-.41c-5.856-.322-11.714-.777-17.58-1.678 5.837-.95 11.68-1.455 17.524-1.826a315.13 315.13 0 0 1 17.544-.557c5.85-.028 11.703.1 17.558.403 5.856.32 11.715.778 17.579 1.684l-70.204.296 70.204-.296zm115.442-36.85c-9.023.951-18.05 1.458-27.08 1.807-9.029.376-18.06.531-27.092.554-9.032.012-18.065-.099-27.1-.434-9.036-.308-18.07-.77-27.112-1.675 9.025-.946 18.052-1.45 27.082-1.802 9.028-.377 18.06-.53 27.09-.56 9.034-.019 18.067.093 27.101.427 9.035.306 18.071.772 27.111 1.682l-108.383.253 108.383-.253zm108.06 47.866c24.79-.954 49.584-1.466 74.38-1.823 12.397-.22 24.794-.28 37.192-.414l37.193-.166 37.194.075c12.4.11 24.797.136 37.196.33 24.797.3 49.595.758 74.396 1.66-24.793.96-49.587 1.475-74.382 1.83-12.397.222-24.794.276-37.19.414l-37.196.16-37.194-.082c-12.398-.106-24.797-.138-37.196-.33-24.796-.3-49.595-.757-74.394-1.653l297.552-.339-297.552.339zm586.872 4.399c21.67-1.064 43.351-1.687 65.034-2.155 10.842-.276 21.687-.391 32.53-.582l32.537-.331 32.54-.092c10.85.056 21.697.026 32.547.164 21.702.189 43.405.537 65.12 1.328-21.67 1.07-43.35 1.695-65.037 2.162-10.84.277-21.685.387-32.529.581l-32.535.325-32.542.085c-10.849-.051-21.696-.027-32.548-.164-21.699-.19-43.402-.535-65.117-1.321l260.308-1.668-260.309 1.668zM300.05 44.076c-21.914.561-43.802.678-65.68.637-10.94.024-21.872-.12-32.809-.18l-32.793-.437-32.776-.675c-10.922-.306-21.847-.537-32.763-.927-21.836-.698-43.662-1.55-65.46-2.844 21.915-.556 43.801-.67 65.68-.63 10.94-.022 21.872.116 32.81.18l32.791.43 32.778.67c10.92.31 21.847.533 32.761.925 21.837.696 43.663 1.551 65.461 2.851L37.77 39.65l262.281 4.426zM-29.905 82.96c21.915-.556 43.802-.671 65.679-.631 10.943-.021 21.874.117 32.809.181l32.794.429 32.777.67c10.921.31 21.847.534 32.763.926 21.835.696 43.661 1.551 65.461 2.851-21.917.561-43.804.678-65.681.637-10.942.024-21.873-.121-32.809-.18l-32.793-.437-32.777-.676c-10.92-.305-21.846-.536-32.762-.926-21.836-.698-43.663-1.55-65.461-2.844zm626.806-8.773c5.836-.95 11.679-1.456 17.524-1.826 5.846-.354 11.693-.53 17.543-.559a310.93 310.93 0 0 1 17.559.404c5.856.32 11.714.778 17.579 1.683-5.835.957-11.678 1.464-17.523 1.834-5.846.353-11.693.53-17.544.55a316.633 316.633 0 0 1-17.56-.408c-5.855-.322-11.713-.778-17.578-1.678zm469.013-.49c8.952-.947 17.908-1.452 26.864-1.802 8.957-.377 17.915-.53 26.875-.56 8.96-.019 17.921.094 26.884.427 8.964.307 17.928.773 26.898 1.683-8.955.951-17.91 1.46-26.866 1.808-8.957.375-17.917.53-26.876.552-8.96.013-17.922-.098-26.884-.433-8.964-.309-17.928-.772-26.895-1.676zm-75.674 38.825c8.95-.946 17.907-1.45 26.865-1.8 8.957-.377 17.916-.53 26.876-.56 8.96-.02 17.92.093 26.884.426 8.963.308 17.928.774 26.895 1.684-8.952.951-17.908 1.459-26.865 1.807-8.956.376-17.915.53-26.875.553-8.96.012-17.922-.099-26.884-.434-8.963-.307-17.927-.771-26.896-1.675zM806.726 61.344c12.515-.646 24.992-.854 37.457-.905 6.236-.067 12.459.026 18.687.044l18.667.292c12.438.263 24.86.719 37.27 1.32 12.41.604 24.809 1.368 37.169 2.575-12.515.653-24.992.862-37.457.912-12.464.047-24.917-.051-37.354-.342l-18.645-.54c-6.21-.258-12.423-.443-18.625-.788-12.41-.605-24.808-1.366-37.17-2.568zm522.379 27.062c17.053-.63 34.079-.82 51.094-.855 8.51-.059 17.01.042 25.515.068l25.498.317 25.484.558c8.488.271 16.983.46 25.467.813 16.972.621 33.934 1.402 50.87 2.626-17.055.636-34.081.828-51.096.863-8.51.06-17.01-.047-25.515-.069l-25.5-.324-25.481-.564c-8.49-.268-16.982-.46-25.467-.814-16.973-.622-33.935-1.4-50.87-2.619z" mask="url(#d)"/>
        </g>
        <path fill="#607D8B" d="M1303.33 649.5c.448 1.793-2.598 5.145-11.54 6.308-8.07 1.05-17.601 2.692-29.46 2.692-9.338 0-19.28-1.397-26.487-2.08-12.088-1.143-15.514-4.717-15.514-6.92 0-2.778 6.553-5.558 23-6 4.375-.117 12.75 0 18 0 6.178 0 13.004.927 18 1 15.227.224 23 1 24 5"/>
        <path fill="#384A51" d="M1266.747 650.5h-4.56l-.239-22h-2l-.717 22h-4.582a.452.452 0 0 0-.45.451v3.098c0 .248.202.451.45.451h12.098a.452.452 0 0 0 .451-.451v-3.098a.452.452 0 0 0-.45-.451M1298.51 647.352l-.785-2.996a.452.452 0 0 0-.55-.322l-4.719 1.235-9.91-25.332-1.864.728 8.798 25.383-4.008 1.05a.453.453 0 0 0-.323.55l.785 2.997c.062.24.31.386.551.322l11.702-3.064a.454.454 0 0 0 .323-.551M1224.697 647.352l.785-2.996a.452.452 0 0 1 .55-.322l4.719 1.235 9.91-25.332 1.864.728-8.798 25.383 4.008 1.05c.24.063.386.31.322.55l-.784 2.997a.452.452 0 0 1-.551.322l-11.703-3.064a.453.453 0 0 1-.322-.551"/>
        <path fill="#F67E7E" d="M1243.75 585.244s-12.128 18.334-12.455 43.706c-.019 1.466 1.764 2.201 2.775 1.141 3.011-3.156 8.282-8.436 14.617-12.988l-4.937-31.859zM1279.386 585.244s12.128 18.334 12.454 43.706c.02 1.466-1.763 2.201-2.774 1.141-3.01-3.156-8.648-8.392-14.984-12.943l5.304-31.904z"/>
        <path fill="#384A51" d="M1275.909 608.833c-.646 3.279-1.288 6.193-1.88 8.379l-12.584-.073-12.756-.076c-.564-2.191-1.168-5.113-1.771-8.399l28.99.169z"/>
        <path fill="#F67E7E" d="M1260.88 514.394a71.497 71.497 0 0 0-9.424 13.32l20.708.12c-3.662-6.839-7.492-11.356-9.376-13.446a1.28 1.28 0 0 0-1.908.006"/>
        <path fill="#ECF0F1" d="M1251.456 527.714c-4.676 8.727-9.155 20.69-9.238 34.894-.062 10.594 2.315 32.545 4.7 46.056l28.99.169c2.551-13.48 5.015-35.412 5.076-45.998.083-14.203-4.237-26.22-8.82-35l-20.708-.121z"/>
        <path fill="#F8F7F9" d="M1251.456 527.714c-4.676 8.727-9.155 20.69-9.238 34.894-.062 10.594 2.315 32.545 4.7 46.056l28.99.169c2.551-13.48 5.015-35.412 5.076-45.998.083-14.203-4.237-26.22-8.82-35l-20.708-.121z"/>
        <path fill="#384A51" d="M1261.94 565.983c-6.562-.038-11.87-5.407-11.83-11.969.038-6.56 5.407-11.869 11.969-11.83 6.56.038 11.869 5.407 11.83 11.97-.038 6.56-5.407 11.868-11.97 11.83"/>
        <path fill="#C3DCE5" d="M1270.831 546.108a11.844 11.844 0 0 1 3.077 8.045c-.038 6.561-5.407 11.87-11.969 11.83a11.857 11.857 0 0 1-7.917-3.087 11.874 11.874 0 0 0 8.753 3.924c6.562.038 11.932-5.269 11.97-11.83a11.865 11.865 0 0 0-3.914-8.882"/>
        <path fill="#F67E7E" d="M1261.158 630.81a1.452 1.452 0 0 1-1.436-1.466s-2.793-16.021-2.762-21.316c.03-5.295 3.01-20.994 3.01-20.994a1.453 1.453 0 0 1 1.453-1.452c.797.005 1.44.663 1.435 1.468 0 0 2.886 15.797 2.856 21.09-.032 5.294-3.104 21.22-3.104 21.22a1.45 1.45 0 0 1-1.452 1.45"/>
        <path fill="#f9ee14" d="M1271.63 554.084a9.62 9.62 0 0 1-9.62 9.62 9.62 9.62 0 0 1-9.62-9.62 9.62 9.62 0 0 1 9.62-9.62 9.62 9.62 0 0 1 9.62 9.62"/>
        <g transform="translate(124 131)">
            <mask id="f" fill="#fff">
                <use xlink:href="#e"/>
            </mask>
            <use fill="#F67E7E" xlink:href="#e"/>
            <path fill="#F7A1A1" d="M66.732 33.095c.185-.347.287-.733.236-1.184-.055-.496-.31-.791-.656-.966-1.432.335-2.858.646-4.177 1.023-4.367 1.25-8.723 2.652-13.19 3.494-1.14.214-2.588-.316-2.832-1.608-.7-3.696 2.233-4.827 5.234-5.898 2.622-.935 5.339-1.543 8.005-2.336 1.606-.477 3.75-.991 5.172-1.818.276-.161 1.313-.68 1.755-1.266a4.262 4.262 0 0 1-.471-1.26c-.385-.186-.955-.355-1.774-.495-.09-.015-.156-.051-.23-.082-2.918.694-5.935 1.153-8.776 1.069-.68-.02-1.373-.357-1.702-.976a57.532 57.532 0 0 1-.184-.344c-1.786-3.357 12.742-5.48 14.8-5.932 2.366-.521 3.599 2.006 2.63 3.599.283.388.467.866.484 1.43-.012.255-.001.498.02.736.484.243 2.353 1.39 2.558 1.604.81.844 1.29 1.796 1.39 2.955.169 1.952-.737 3.17-2.435 4.053-.158.082-.328.15-.491.226.353.942.42 2.039.169 3.099 1.115.338 1.95 1.689 1.548 2.806a1.895 1.895 0 0 1-.637 1.202c2.412.743 2.612 4.45 0 5.095-3.11.765-17.885 5.863-18.114-.63-.104-2.962 3.565-4.046 5.812-4.764 1.64-.524 3.224-1.102 4.707-1.997.302-.182.716-.477 1.149-.835zm-31.099-14.45c1.22.665 1.416 2.881 0 3.486-3.713 1.587-8.176 1.4-12.155 2.45-.907.242-1.806.485-2.703.718.767 1.6 1.732 2.666 4.004 2.367 2.322-.306 4.641-.648 6.962-.97 2.156-.302 3.155 2.741.927 3.362-8.577 2.39-17.144 4.589-25.879 6.337-2.614.522-3.736-3.438-1.108-4.019 1.76-.387 3.327-1.195 4.924-1.993-.658-.194-1.153-.785-1.334-1.444-.337-.485-.464-1.111-.219-1.837l.124-.367c.09-.267.225-.537.4-.78-.547-.904-.3-2.27.97-2.624 4.632-1.29 9.151-2.947 13.777-4.247 3.603-1.01 7.865-2.317 11.31-.44z" mask="url(#f)"/>
            <path fill="#FFD2D2" d="M60.72 4.735c3.137.365 2.772 5.088-.484 5.497-8.338 1.047-16.898 5.376-25.094 1.888-2.102-.896-1.557-4.205.352-4.945.136-.348.395-.658.81-.868 2.876-1.454 6.203-1.713 9.33-2.37 4.034-.849 7.944-1.976 11.872-3.22 2.144-.679 4.58 2.05 3.213 4.018zM44.482 42.493c3.223-.509 4.74 3.935 1.808 5.077-.306.432-.772.77-1.441.916a35.82 35.82 0 0 0-2.373.62c-2.057.972-4.317 1.705-6.54 2.382-6.036 2.515-11.985 5.47-18.435 5.834-.896.051-1.552-.317-1.963-.873-1.008-.63-1.57-2.003-.46-2.953a11.1 11.1 0 0 1 .72-.567c.077-.077.155-.15.243-.216-.36-.7-.275-1.625.56-1.994 3.964-1.75 8.135-3.117 12.37-4.31 1.702-.718 3.389-1.4 5.182-1.882 2.05-.55 4.465-1.215 6.778-1.295 1.173-.3 2.355-.55 3.55-.739zm2.59 12.718c-.731.407-1.385-.714-.655-1.12 2.47-1.374 4.989-2.447 7.736-3.131.53-.132.695.599.219.795-2.485 1.027-4.95 2.149-7.3 3.456zm-4.644-30.998c-.917.212-1.298-1.156-.389-1.411a38.075 38.075 0 0 1 3.384-.79c.83-.153 1.165 1.005.351 1.272-1.11.366-2.208.665-3.346.929zm-21.115-9.718c-.255-.097-.464-.415-.277-.68.325-.462.871-.59 1.392-.765.603-.2 1.2-.357 1.822-.49.77-.166 1.02.87.317 1.152-.555.223-1.103.425-1.68.587-.492.14-1.075.383-1.574.196z" mask="url(#f)"/>
            <path fill="#FFF" d="M8.861 35.263c-1.747 1.42-3.482 2.864-5.056 4.449-.765.797-1.54 1.643-1.986 2.582-.097.234-.175.47-.166.674-.026.212.096.338.213.502.297.294.812.462 1.323.56 2.098.388 4.374.152 6.574-.072 2.215-.262 4.427-.61 6.63-1.02a229.1 229.1 0 0 0 13.136-2.908 329.04 329.04 0 0 0 13.005-3.51 316.645 316.645 0 0 0 12.87-3.977 207.284 207.284 0 0 0 12.643-4.586 82.956 82.956 0 0 0 6.108-2.746c.99-.507 1.963-1.041 2.88-1.641a11.6 11.6 0 0 0 1.305-.967c.406-.342.781-.728 1.001-1.134.22-.412.253-.771-.046-1.121-.288-.352-.77-.621-1.258-.837-.988-.438-2.08-.714-3.17-.942-2.194-.44-4.434-.706-6.673-.941 2.252.045 4.508.153 6.753.482 1.122.169 2.245.378 3.345.788.545.212 1.104.454 1.576.947.111.129.214.28.305.433.053.176.156.35.148.54.04.38-.062.745-.208 1.034-.288.603-.714 1.043-1.143 1.447-.43.412-.893.764-1.36 1.102-.94.673-1.92 1.263-2.912 1.827-1.992 1.106-4.045 2.076-6.116 2.992-8.303 3.625-16.898 6.445-25.56 8.987-8.683 2.47-17.458 4.662-26.4 6.079-2.238.34-4.484.646-6.752.815-1.134.08-2.273.13-3.419.124-1.145-.017-2.3-.064-3.463-.361-.57-.158-1.183-.35-1.68-.88-.104-.151-.218-.3-.285-.476a1.307 1.307 0 0 1-.079-.558c.017-.364.146-.663.28-.941.592-1.071 1.43-1.852 2.26-2.63C5.164 37.849 7 36.534 8.86 35.263"/>
        </g>
    </g>
</svg>
